<svg width="872" height="82" viewBox="0 0 872 82" fill="none" xmlns="http://www.w3.org/2000/svg">
<path d="M-0.0078125 41.4906C-0.0078125 63.582 17.9008 81.4906 39.9922 81.4906C62.0836 81.4906 79.9922 63.582 79.9922 41.4906C79.9922 19.3992 62.0836 1.49057 39.9922 1.49057C17.9008 1.49057 -0.0078125 19.3992 -0.0078125 41.4906ZM792.008 41.4906C792.008 63.582 809.917 81.4906 832.008 81.4906C854.099 81.4906 872.008 63.582 872.008 41.4906C872.008 19.3992 854.099 1.49057 832.008 1.49057C809.917 1.49057 792.008 19.3992 792.008 41.4906ZM39.9922 48.9906H832.008V33.9906H39.9922V48.9906Z" fill="white"/>
<circle cx="39.5" cy="40.5" r="39.5" fill="white"/>
<path d="M44.0114 27.7273V51H39.0909V32.3977H38.9545L33.625 35.7386V31.375L39.3864 27.7273H44.0114Z" fill="#E2646F"/>
<circle cx="436.5" cy="39.5" r="39.5" fill="white"/>
<path d="M832.489 54.3182C830.792 54.3182 829.28 54.0265 827.955 53.4432C826.636 52.8523 825.595 52.0417 824.83 51.0114C824.072 49.9735 823.682 48.7765 823.659 47.4205H828.614C828.644 47.9886 828.83 48.4886 829.17 48.9205C829.519 49.3447 829.981 49.6742 830.557 49.9091C831.133 50.1439 831.78 50.2614 832.5 50.2614C833.25 50.2614 833.913 50.1288 834.489 49.8636C835.064 49.5985 835.515 49.2311 835.841 48.7614C836.167 48.2917 836.33 47.75 836.33 47.1364C836.33 46.5152 836.155 45.9659 835.807 45.4886C835.466 45.0038 834.973 44.625 834.33 44.3523C833.693 44.0795 832.936 43.9432 832.057 43.9432H829.886V40.3295H832.057C832.799 40.3295 833.455 40.2008 834.023 39.9432C834.598 39.6856 835.045 39.3295 835.364 38.875C835.682 38.4129 835.841 37.875 835.841 37.2614C835.841 36.678 835.701 36.1667 835.42 35.7273C835.148 35.2803 834.761 34.9318 834.261 34.6818C833.769 34.4318 833.193 34.3068 832.534 34.3068C831.867 34.3068 831.258 34.428 830.705 34.6705C830.152 34.9053 829.708 35.2424 829.375 35.6818C829.042 36.1212 828.864 36.6364 828.841 37.2273H824.125C824.148 35.8864 824.53 34.7045 825.273 33.6818C826.015 32.6591 827.015 31.8598 828.273 31.2841C829.538 30.7008 830.966 30.4091 832.557 30.4091C834.163 30.4091 835.568 30.7008 836.773 31.2841C837.977 31.8674 838.913 32.6553 839.58 33.6477C840.254 34.6326 840.587 35.7386 840.58 36.9659C840.587 38.2689 840.182 39.3561 839.364 40.2273C838.553 41.0985 837.496 41.6515 836.193 41.8864V42.0682C837.905 42.2879 839.208 42.8826 840.102 43.8523C841.004 44.8144 841.451 46.0189 841.443 47.4659C841.451 48.7917 841.068 49.9697 840.295 51C839.53 52.0303 838.473 52.8409 837.125 53.4318C835.777 54.0227 834.231 54.3182 832.489 54.3182Z" fill="#E2646F"/>
<line x1="64" y1="41.5" x2="805" y2="41.5001" stroke="white" stroke-width="15"/>
<path d="M427.886 51V47.4545L436.17 39.7841C436.875 39.1023 437.466 38.4886 437.943 37.9432C438.428 37.3977 438.795 36.8636 439.045 36.3409C439.295 35.8106 439.42 35.2386 439.42 34.625C439.42 33.9432 439.265 33.3561 438.955 32.8636C438.644 32.3636 438.22 31.9811 437.682 31.7159C437.144 31.4432 436.534 31.3068 435.852 31.3068C435.14 31.3068 434.519 31.4508 433.989 31.7386C433.458 32.0265 433.049 32.4394 432.761 32.9773C432.473 33.5152 432.33 34.1553 432.33 34.8977H427.659C427.659 33.375 428.004 32.053 428.693 30.9318C429.383 29.8106 430.348 28.9432 431.591 28.3295C432.833 27.7159 434.265 27.4091 435.886 27.4091C437.553 27.4091 439.004 27.7045 440.239 28.2955C441.481 28.8788 442.447 29.6894 443.136 30.7273C443.826 31.7652 444.17 32.9545 444.17 34.2955C444.17 35.1742 443.996 36.0417 443.648 36.8977C443.307 37.7538 442.697 38.7045 441.818 39.75C440.939 40.7879 439.701 42.0341 438.102 43.4886L434.705 46.8182V46.9773H444.477V51H427.886Z" fill="#E2646F"/>
</svg>
