<svg width="872" height="99" viewBox="0 0 872 99" fill="none" xmlns="http://www.w3.org/2000/svg">
<path d="M0.00079155 39.7484C-0.138145 61.8394 17.6575 79.8603 39.7484 79.9992C61.8394 80.1381 79.8603 62.3425 79.9992 40.2516C80.1381 18.1606 62.3425 0.139728 40.2516 0.00079155C18.1606 -0.138145 0.139728 17.6575 0.00079155 39.7484ZM792.001 44.7296C791.862 66.8205 809.658 84.8414 831.749 84.9803C853.84 85.1193 871.86 67.3237 871.999 45.2327C872.138 23.1417 854.343 5.12086 832.252 4.98192C810.161 4.84299 792.14 22.6386 792.001 44.7296ZM39.9528 47.4999L831.953 52.481L832.047 37.4813L40.0472 32.5001L39.9528 47.4999Z" fill="#999999"/>
<circle cx="39.5" cy="40.5" r="39.5" fill="white"/>
<path d="M44.0114 28.7273V52H39.0909V33.3977H38.9545L33.625 36.7386V32.375L39.3864 28.7273H44.0114Z" fill="#E2646F"/>
<circle cx="436.5" cy="40.5" r="39.5" fill="#999999"/>
<path d="M427.886 52V48.4545L436.17 40.7841C436.875 40.1023 437.466 39.4886 437.943 38.9432C438.428 38.3977 438.795 37.8636 439.045 37.3409C439.295 36.8106 439.42 36.2386 439.42 35.625C439.42 34.9432 439.265 34.3561 438.955 33.8636C438.644 33.3636 438.22 32.9811 437.682 32.7159C437.144 32.4432 436.534 32.3068 435.852 32.3068C435.14 32.3068 434.519 32.4508 433.989 32.7386C433.458 33.0265 433.049 33.4394 432.761 33.9773C432.473 34.5152 432.33 35.1553 432.33 35.8977H427.659C427.659 34.375 428.004 33.053 428.693 31.9318C429.383 30.8106 430.348 29.9432 431.591 29.3295C432.833 28.7159 434.265 28.4091 435.886 28.4091C437.553 28.4091 439.004 28.7045 440.239 29.2955C441.481 29.8788 442.447 30.6894 443.136 31.7273C443.826 32.7652 444.17 33.9545 444.17 35.2955C444.17 36.1742 443.996 37.0417 443.648 37.8977C443.307 38.7538 442.697 39.7045 441.818 40.75C440.939 41.7879 439.701 43.0341 438.102 44.4886L434.705 47.8182V47.9773H444.477V52H427.886Z" fill="#E2646F"/>
<path d="M832.489 55.3182C830.792 55.3182 829.28 55.0265 827.955 54.4432C826.636 53.8523 825.595 53.0417 824.83 52.0114C824.072 50.9735 823.682 49.7765 823.659 48.4205H828.614C828.644 48.9886 828.83 49.4886 829.17 49.9205C829.519 50.3447 829.981 50.6742 830.557 50.9091C831.133 51.1439 831.78 51.2614 832.5 51.2614C833.25 51.2614 833.913 51.1288 834.489 50.8636C835.064 50.5985 835.515 50.2311 835.841 49.7614C836.167 49.2917 836.33 48.75 836.33 48.1364C836.33 47.5152 836.155 46.9659 835.807 46.4886C835.466 46.0038 834.973 45.625 834.33 45.3523C833.693 45.0795 832.936 44.9432 832.057 44.9432H829.886V41.3295H832.057C832.799 41.3295 833.455 41.2008 834.023 40.9432C834.598 40.6856 835.045 40.3295 835.364 39.875C835.682 39.4129 835.841 38.875 835.841 38.2614C835.841 37.678 835.701 37.1667 835.42 36.7273C835.148 36.2803 834.761 35.9318 834.261 35.6818C833.769 35.4318 833.193 35.3068 832.534 35.3068C831.867 35.3068 831.258 35.428 830.705 35.6705C830.152 35.9053 829.708 36.2424 829.375 36.6818C829.042 37.1212 828.864 37.6364 828.841 38.2273H824.125C824.148 36.8864 824.53 35.7045 825.273 34.6818C826.015 33.6591 827.015 32.8598 828.273 32.2841C829.538 31.7008 830.966 31.4091 832.557 31.4091C834.163 31.4091 835.568 31.7008 836.773 32.2841C837.977 32.8674 838.913 33.6553 839.58 34.6477C840.254 35.6326 840.587 36.7386 840.58 37.9659C840.587 39.2689 840.182 40.3561 839.364 41.2273C838.553 42.0985 837.496 42.6515 836.193 42.8864V43.0682C837.905 43.2879 839.208 43.8826 840.102 44.8523C841.004 45.8144 841.451 47.0189 841.443 48.4659C841.451 49.7917 841.068 50.9697 840.295 52C839.53 53.0303 838.473 53.8409 837.125 54.4318C835.777 55.0227 834.231 55.3182 832.489 55.3182Z" fill="#E2646F"/>
</svg>
